<mxfile host="Electron" agent="Mozilla/5.0 (Windows NT 10.0; Win64; x64) AppleWebKit/537.36 (KHTML, like Gecko) draw.io/28.2.5 Chrome/138.0.7204.251 Electron/37.6.1 Safari/537.36" version="28.2.5">
  <diagram name="Página-1" id="lgsfylnA9JrC5za6dz95">
    <mxGraphModel dx="628" dy="863" grid="1" gridSize="10" guides="1" tooltips="1" connect="1" arrows="1" fold="1" page="1" pageScale="1" pageWidth="827" pageHeight="1169" math="0" shadow="0">
      <root>
        <mxCell id="0" />
        <mxCell id="1" parent="0" />
        <mxCell id="7GB0SN49nU3vowdlAvA3-3" style="edgeStyle=orthogonalEdgeStyle;rounded=0;orthogonalLoop=1;jettySize=auto;html=1;entryX=0.5;entryY=0;entryDx=0;entryDy=0;" edge="1" parent="1" source="7GB0SN49nU3vowdlAvA3-1" target="7GB0SN49nU3vowdlAvA3-2">
          <mxGeometry relative="1" as="geometry" />
        </mxCell>
        <mxCell id="7GB0SN49nU3vowdlAvA3-1" value="Início" style="ellipse;whiteSpace=wrap;html=1;" vertex="1" parent="1">
          <mxGeometry x="354" y="40" width="120" height="80" as="geometry" />
        </mxCell>
        <mxCell id="7GB0SN49nU3vowdlAvA3-6" style="edgeStyle=orthogonalEdgeStyle;rounded=0;orthogonalLoop=1;jettySize=auto;html=1;entryX=0.5;entryY=0;entryDx=0;entryDy=0;" edge="1" parent="1" source="7GB0SN49nU3vowdlAvA3-2" target="7GB0SN49nU3vowdlAvA3-4">
          <mxGeometry relative="1" as="geometry" />
        </mxCell>
        <mxCell id="7GB0SN49nU3vowdlAvA3-2" value="&lt;div&gt;Definir variável per = 9&lt;/div&gt;" style="rounded=0;whiteSpace=wrap;html=1;" vertex="1" parent="1">
          <mxGeometry x="354" y="160" width="120" height="60" as="geometry" />
        </mxCell>
        <mxCell id="7GB0SN49nU3vowdlAvA3-7" style="edgeStyle=orthogonalEdgeStyle;rounded=0;orthogonalLoop=1;jettySize=auto;html=1;entryX=0.5;entryY=0;entryDx=0;entryDy=0;" edge="1" parent="1" source="7GB0SN49nU3vowdlAvA3-4" target="7GB0SN49nU3vowdlAvA3-5">
          <mxGeometry relative="1" as="geometry" />
        </mxCell>
        <mxCell id="7GB0SN49nU3vowdlAvA3-4" value="&lt;div&gt;Definir variável per_2 = 8&lt;/div&gt;" style="rounded=0;whiteSpace=wrap;html=1;" vertex="1" parent="1">
          <mxGeometry x="354" y="260" width="120" height="60" as="geometry" />
        </mxCell>
        <mxCell id="7GB0SN49nU3vowdlAvA3-12" value="" style="edgeStyle=orthogonalEdgeStyle;rounded=0;orthogonalLoop=1;jettySize=auto;html=1;" edge="1" parent="1" source="7GB0SN49nU3vowdlAvA3-5" target="7GB0SN49nU3vowdlAvA3-10">
          <mxGeometry relative="1" as="geometry" />
        </mxCell>
        <mxCell id="7GB0SN49nU3vowdlAvA3-5" value="&lt;div&gt;Definir variável tempo = 1000&lt;/div&gt;" style="rounded=0;whiteSpace=wrap;html=1;" vertex="1" parent="1">
          <mxGeometry x="354" y="360" width="120" height="60" as="geometry" />
        </mxCell>
        <mxCell id="7GB0SN49nU3vowdlAvA3-8" style="edgeStyle=orthogonalEdgeStyle;rounded=0;orthogonalLoop=1;jettySize=auto;html=1;entryX=0.5;entryY=0;entryDx=0;entryDy=0;" edge="1" parent="1" target="7GB0SN49nU3vowdlAvA3-10">
          <mxGeometry relative="1" as="geometry">
            <mxPoint x="414" y="420" as="sourcePoint" />
          </mxGeometry>
        </mxCell>
        <mxCell id="7GB0SN49nU3vowdlAvA3-9" style="edgeStyle=orthogonalEdgeStyle;rounded=0;orthogonalLoop=1;jettySize=auto;html=1;entryX=0.5;entryY=0;entryDx=0;entryDy=0;" edge="1" parent="1" source="7GB0SN49nU3vowdlAvA3-10" target="7GB0SN49nU3vowdlAvA3-11">
          <mxGeometry relative="1" as="geometry" />
        </mxCell>
        <mxCell id="7GB0SN49nU3vowdlAvA3-10" value="&lt;div&gt;Configurar per como saída&lt;/div&gt;" style="rounded=0;whiteSpace=wrap;html=1;" vertex="1" parent="1">
          <mxGeometry x="354" y="460" width="120" height="60" as="geometry" />
        </mxCell>
        <mxCell id="7GB0SN49nU3vowdlAvA3-14" style="edgeStyle=orthogonalEdgeStyle;rounded=0;orthogonalLoop=1;jettySize=auto;html=1;entryX=0.5;entryY=0;entryDx=0;entryDy=0;" edge="1" parent="1" source="7GB0SN49nU3vowdlAvA3-11" target="7GB0SN49nU3vowdlAvA3-13">
          <mxGeometry relative="1" as="geometry" />
        </mxCell>
        <mxCell id="7GB0SN49nU3vowdlAvA3-11" value="&lt;div&gt;Configurar per_2 como saída&lt;/div&gt;" style="rounded=0;whiteSpace=wrap;html=1;" vertex="1" parent="1">
          <mxGeometry x="354" y="560" width="120" height="60" as="geometry" />
        </mxCell>
        <mxCell id="7GB0SN49nU3vowdlAvA3-17" style="edgeStyle=orthogonalEdgeStyle;rounded=0;orthogonalLoop=1;jettySize=auto;html=1;entryX=0.5;entryY=0;entryDx=0;entryDy=0;" edge="1" parent="1" source="7GB0SN49nU3vowdlAvA3-13" target="7GB0SN49nU3vowdlAvA3-15">
          <mxGeometry relative="1" as="geometry" />
        </mxCell>
        <mxCell id="7GB0SN49nU3vowdlAvA3-13" value="Repetir&lt;div&gt;sempre&lt;/div&gt;" style="rhombus;whiteSpace=wrap;html=1;" vertex="1" parent="1">
          <mxGeometry x="351" y="660" width="126" height="80" as="geometry" />
        </mxCell>
        <mxCell id="7GB0SN49nU3vowdlAvA3-18" style="edgeStyle=orthogonalEdgeStyle;rounded=0;orthogonalLoop=1;jettySize=auto;html=1;entryX=0.5;entryY=0;entryDx=0;entryDy=0;" edge="1" parent="1" source="7GB0SN49nU3vowdlAvA3-15" target="7GB0SN49nU3vowdlAvA3-16">
          <mxGeometry relative="1" as="geometry" />
        </mxCell>
        <mxCell id="7GB0SN49nU3vowdlAvA3-15" value="&lt;div&gt;Ligar LED 1 ao pino 9&lt;/div&gt;" style="rounded=0;whiteSpace=wrap;html=1;" vertex="1" parent="1">
          <mxGeometry x="354" y="780" width="120" height="60" as="geometry" />
        </mxCell>
        <mxCell id="7GB0SN49nU3vowdlAvA3-20" style="edgeStyle=orthogonalEdgeStyle;rounded=0;orthogonalLoop=1;jettySize=auto;html=1;entryX=0.5;entryY=0;entryDx=0;entryDy=0;" edge="1" parent="1" source="7GB0SN49nU3vowdlAvA3-16" target="7GB0SN49nU3vowdlAvA3-19">
          <mxGeometry relative="1" as="geometry" />
        </mxCell>
        <mxCell id="7GB0SN49nU3vowdlAvA3-16" value="&lt;div&gt;Esperar 1000 ms&lt;/div&gt;" style="rounded=0;whiteSpace=wrap;html=1;" vertex="1" parent="1">
          <mxGeometry x="354" y="880" width="120" height="60" as="geometry" />
        </mxCell>
        <mxCell id="7GB0SN49nU3vowdlAvA3-22" style="edgeStyle=orthogonalEdgeStyle;rounded=0;orthogonalLoop=1;jettySize=auto;html=1;entryX=0.5;entryY=0;entryDx=0;entryDy=0;" edge="1" parent="1" source="7GB0SN49nU3vowdlAvA3-19" target="7GB0SN49nU3vowdlAvA3-21">
          <mxGeometry relative="1" as="geometry" />
        </mxCell>
        <mxCell id="7GB0SN49nU3vowdlAvA3-19" value="&lt;div&gt;Desligar LED 1&lt;/div&gt;" style="rounded=0;whiteSpace=wrap;html=1;" vertex="1" parent="1">
          <mxGeometry x="354" y="980" width="120" height="60" as="geometry" />
        </mxCell>
        <mxCell id="7GB0SN49nU3vowdlAvA3-24" style="edgeStyle=orthogonalEdgeStyle;rounded=0;orthogonalLoop=1;jettySize=auto;html=1;entryX=0.5;entryY=0;entryDx=0;entryDy=0;" edge="1" parent="1" source="7GB0SN49nU3vowdlAvA3-21" target="7GB0SN49nU3vowdlAvA3-23">
          <mxGeometry relative="1" as="geometry" />
        </mxCell>
        <mxCell id="7GB0SN49nU3vowdlAvA3-21" value="&lt;div&gt;Ligar LED 2 ao pino 8&lt;/div&gt;" style="rounded=0;whiteSpace=wrap;html=1;" vertex="1" parent="1">
          <mxGeometry x="354" y="1080" width="120" height="60" as="geometry" />
        </mxCell>
        <mxCell id="7GB0SN49nU3vowdlAvA3-26" style="edgeStyle=orthogonalEdgeStyle;rounded=0;orthogonalLoop=1;jettySize=auto;html=1;entryX=0.5;entryY=0;entryDx=0;entryDy=0;" edge="1" parent="1" source="7GB0SN49nU3vowdlAvA3-23" target="7GB0SN49nU3vowdlAvA3-25">
          <mxGeometry relative="1" as="geometry" />
        </mxCell>
        <mxCell id="7GB0SN49nU3vowdlAvA3-23" value="&lt;div&gt;Esperar 1000 ms&lt;/div&gt;" style="rounded=0;whiteSpace=wrap;html=1;" vertex="1" parent="1">
          <mxGeometry x="354" y="1180" width="120" height="60" as="geometry" />
        </mxCell>
        <mxCell id="7GB0SN49nU3vowdlAvA3-28" style="edgeStyle=orthogonalEdgeStyle;rounded=0;orthogonalLoop=1;jettySize=auto;html=1;entryX=0.5;entryY=0;entryDx=0;entryDy=0;" edge="1" parent="1" source="7GB0SN49nU3vowdlAvA3-25" target="7GB0SN49nU3vowdlAvA3-27">
          <mxGeometry relative="1" as="geometry" />
        </mxCell>
        <mxCell id="7GB0SN49nU3vowdlAvA3-25" value="&lt;div&gt;Desligar LED 2&lt;/div&gt;" style="rounded=0;whiteSpace=wrap;html=1;" vertex="1" parent="1">
          <mxGeometry x="354" y="1280" width="120" height="60" as="geometry" />
        </mxCell>
        <mxCell id="7GB0SN49nU3vowdlAvA3-27" value="Fim" style="ellipse;whiteSpace=wrap;html=1;" vertex="1" parent="1">
          <mxGeometry x="354" y="1380" width="120" height="80" as="geometry" />
        </mxCell>
        <mxCell id="7GB0SN49nU3vowdlAvA3-29" value="" style="endArrow=classic;html=1;rounded=0;entryX=0;entryY=0.5;entryDx=0;entryDy=0;" edge="1" parent="1" target="7GB0SN49nU3vowdlAvA3-13">
          <mxGeometry width="50" height="50" relative="1" as="geometry">
            <mxPoint x="414" y="1359" as="sourcePoint" />
            <mxPoint x="240" y="690" as="targetPoint" />
            <Array as="points">
              <mxPoint x="240" y="1360" />
              <mxPoint x="240" y="700" />
            </Array>
          </mxGeometry>
        </mxCell>
      </root>
    </mxGraphModel>
  </diagram>
</mxfile>
